<mxfile host="app.diagrams.net" modified="2023-10-24T12:02:08.049Z" agent="Mozilla/5.0 (Windows NT 10.0; Win64; x64) AppleWebKit/537.36 (KHTML, like Gecko) Chrome/109.0.0.0 Safari/537.36" etag="h1wOYSt1SkVe_b4FhTsY" version="22.0.6" type="device">
  <diagram name="Página-1" id="3ZRZQcbHr6eWC8pdjs75">
    <mxGraphModel dx="1032" dy="557" grid="1" gridSize="10" guides="1" tooltips="1" connect="1" arrows="1" fold="1" page="1" pageScale="1" pageWidth="827" pageHeight="1169" math="0" shadow="0">
      <root>
        <mxCell id="0" />
        <mxCell id="1" parent="0" />
        <mxCell id="Bse5uKkhkYYTRCW6ZDqW-17" value="" style="rounded=0;whiteSpace=wrap;html=1;" vertex="1" parent="1">
          <mxGeometry x="360" y="510" width="530" height="290" as="geometry" />
        </mxCell>
        <mxCell id="Bse5uKkhkYYTRCW6ZDqW-2" value="Preencher&lt;br&gt;&quot;Username&quot;" style="ellipse;whiteSpace=wrap;html=1;" vertex="1" parent="1">
          <mxGeometry x="400" y="550" width="94" height="60" as="geometry" />
        </mxCell>
        <mxCell id="Bse5uKkhkYYTRCW6ZDqW-3" value="Preencher&lt;br&gt;&quot;Password&quot;" style="ellipse;whiteSpace=wrap;html=1;" vertex="1" parent="1">
          <mxGeometry x="400" y="620" width="94" height="60" as="geometry" />
        </mxCell>
        <mxCell id="Bse5uKkhkYYTRCW6ZDqW-4" value="Preencher&lt;br&gt;&quot;E-mail&quot;" style="ellipse;whiteSpace=wrap;html=1;" vertex="1" parent="1">
          <mxGeometry x="400" y="690" width="94" height="60" as="geometry" />
        </mxCell>
        <mxCell id="Bse5uKkhkYYTRCW6ZDqW-5" value="Registrar-se" style="ellipse;whiteSpace=wrap;html=1;" vertex="1" parent="1">
          <mxGeometry x="716" y="690" width="94" height="60" as="geometry" />
        </mxCell>
        <mxCell id="Bse5uKkhkYYTRCW6ZDqW-6" value="Usuário" style="shape=umlActor;verticalLabelPosition=bottom;verticalAlign=top;html=1;" vertex="1" parent="1">
          <mxGeometry x="130" y="620" width="30" height="60" as="geometry" />
        </mxCell>
        <mxCell id="Bse5uKkhkYYTRCW6ZDqW-7" value="" style="endArrow=none;html=1;rounded=0;exitX=0;exitY=0.5;exitDx=0;exitDy=0;entryX=0.5;entryY=0.5;entryDx=0;entryDy=0;entryPerimeter=0;" edge="1" parent="1" source="Bse5uKkhkYYTRCW6ZDqW-2" target="Bse5uKkhkYYTRCW6ZDqW-6">
          <mxGeometry width="50" height="50" relative="1" as="geometry">
            <mxPoint x="410" y="490" as="sourcePoint" />
            <mxPoint x="155" y="270" as="targetPoint" />
          </mxGeometry>
        </mxCell>
        <mxCell id="Bse5uKkhkYYTRCW6ZDqW-8" value="" style="endArrow=none;html=1;rounded=0;exitX=0;exitY=0.5;exitDx=0;exitDy=0;entryX=0.5;entryY=0.5;entryDx=0;entryDy=0;entryPerimeter=0;" edge="1" parent="1" source="Bse5uKkhkYYTRCW6ZDqW-3" target="Bse5uKkhkYYTRCW6ZDqW-6">
          <mxGeometry width="50" height="50" relative="1" as="geometry">
            <mxPoint x="410" y="590" as="sourcePoint" />
            <mxPoint x="155" y="640" as="targetPoint" />
          </mxGeometry>
        </mxCell>
        <mxCell id="Bse5uKkhkYYTRCW6ZDqW-9" value="" style="endArrow=none;html=1;rounded=0;exitX=0;exitY=0.5;exitDx=0;exitDy=0;entryX=0.5;entryY=0.5;entryDx=0;entryDy=0;entryPerimeter=0;" edge="1" parent="1" source="Bse5uKkhkYYTRCW6ZDqW-4" target="Bse5uKkhkYYTRCW6ZDqW-6">
          <mxGeometry width="50" height="50" relative="1" as="geometry">
            <mxPoint x="410" y="660" as="sourcePoint" />
            <mxPoint x="280" y="690" as="targetPoint" />
          </mxGeometry>
        </mxCell>
        <mxCell id="Bse5uKkhkYYTRCW6ZDqW-10" value="&amp;lt;&amp;lt;extends&amp;gt;." style="endArrow=open;endSize=12;html=1;rounded=0;exitX=1;exitY=0.5;exitDx=0;exitDy=0;entryX=0;entryY=0.5;entryDx=0;entryDy=0;" edge="1" parent="1" source="Bse5uKkhkYYTRCW6ZDqW-2" target="Bse5uKkhkYYTRCW6ZDqW-5">
          <mxGeometry x="-0.0017" width="160" relative="1" as="geometry">
            <mxPoint x="700" y="355" as="sourcePoint" />
            <mxPoint x="710" y="650" as="targetPoint" />
            <mxPoint as="offset" />
          </mxGeometry>
        </mxCell>
        <mxCell id="Bse5uKkhkYYTRCW6ZDqW-11" value="&amp;lt;&amp;lt;extends&amp;gt;&amp;gt;" style="endArrow=open;endSize=12;html=1;rounded=0;exitX=1;exitY=0.5;exitDx=0;exitDy=0;entryX=0;entryY=0.5;entryDx=0;entryDy=0;" edge="1" parent="1" source="Bse5uKkhkYYTRCW6ZDqW-3" target="Bse5uKkhkYYTRCW6ZDqW-5">
          <mxGeometry width="160" relative="1" as="geometry">
            <mxPoint x="730" y="660" as="sourcePoint" />
            <mxPoint x="720" y="640" as="targetPoint" />
          </mxGeometry>
        </mxCell>
        <mxCell id="Bse5uKkhkYYTRCW6ZDqW-12" value="&amp;lt;&amp;lt;extends&amp;gt;&amp;gt;" style="endArrow=open;endSize=12;html=1;rounded=0;exitX=1;exitY=0.5;exitDx=0;exitDy=0;entryX=0;entryY=0.5;entryDx=0;entryDy=0;" edge="1" parent="1" source="Bse5uKkhkYYTRCW6ZDqW-4" target="Bse5uKkhkYYTRCW6ZDqW-5">
          <mxGeometry width="160" relative="1" as="geometry">
            <mxPoint x="730" y="660" as="sourcePoint" />
            <mxPoint x="710" y="650" as="targetPoint" />
          </mxGeometry>
        </mxCell>
        <mxCell id="Bse5uKkhkYYTRCW6ZDqW-13" value="&lt;b style=&quot;border-color: var(--border-color);&quot;&gt;SISTEMA DE LOGIN&lt;/b&gt;" style="text;html=1;strokeColor=none;fillColor=none;align=center;verticalAlign=middle;whiteSpace=wrap;rounded=0;" vertex="1" parent="1">
          <mxGeometry x="810" y="750" width="60" height="30" as="geometry" />
        </mxCell>
        <mxCell id="Bse5uKkhkYYTRCW6ZDqW-14" value="Logar" style="ellipse;whiteSpace=wrap;html=1;" vertex="1" parent="1">
          <mxGeometry x="716" y="550" width="94" height="60" as="geometry" />
        </mxCell>
        <mxCell id="Bse5uKkhkYYTRCW6ZDqW-15" value="&amp;lt;&amp;lt;extends&amp;gt;&amp;gt;" style="endArrow=open;endSize=12;html=1;rounded=0;exitX=1;exitY=0.5;exitDx=0;exitDy=0;entryX=0;entryY=0.5;entryDx=0;entryDy=0;" edge="1" parent="1" source="Bse5uKkhkYYTRCW6ZDqW-2" target="Bse5uKkhkYYTRCW6ZDqW-14">
          <mxGeometry width="160" relative="1" as="geometry">
            <mxPoint x="504" y="660" as="sourcePoint" />
            <mxPoint x="710" y="730" as="targetPoint" />
          </mxGeometry>
        </mxCell>
        <mxCell id="Bse5uKkhkYYTRCW6ZDqW-16" value="&amp;lt;&amp;lt;extends&amp;gt;&amp;gt;" style="endArrow=open;endSize=12;html=1;rounded=0;exitX=1;exitY=0.5;exitDx=0;exitDy=0;entryX=0;entryY=0.5;entryDx=0;entryDy=0;" edge="1" parent="1" source="Bse5uKkhkYYTRCW6ZDqW-3" target="Bse5uKkhkYYTRCW6ZDqW-14">
          <mxGeometry width="160" relative="1" as="geometry">
            <mxPoint x="504" y="660" as="sourcePoint" />
            <mxPoint x="726" y="730" as="targetPoint" />
          </mxGeometry>
        </mxCell>
      </root>
    </mxGraphModel>
  </diagram>
</mxfile>
